<svg width="60" height="44" viewBox="0 0 60 44" fill="none" xmlns="http://www.w3.org/2000/svg">
<path d="M2.52075 35.9869C3.65303 35.9869 4.6673 35.9869 5.76708 35.9869C5.76708 35.5702 5.76708 35.2369 5.76708 34.9052C5.76708 25.7805 5.76537 16.6558 5.76708 7.53275C5.76708 5.01218 6.99857 3.7723 9.53851 3.7706C23.2456 3.7655 36.9528 3.7655 50.6599 3.7706C53.1451 3.7723 54.3971 5.03089 54.3954 7.48512C54.3954 16.6098 54.3954 25.7346 54.3954 34.8576C54.3954 35.1944 54.3954 35.5311 54.3954 35.9818C55.4798 35.9818 56.5146 35.9818 57.6093 35.9818C57.6093 36.936 57.6794 37.7847 57.5922 38.618C57.469 39.778 56.4616 40.6607 55.2797 40.7661C55.0249 40.7882 54.7666 40.7763 54.51 40.7763C38.2664 40.7763 22.0227 40.7763 5.78077 40.7763C3.40673 40.7763 2.52246 39.9055 2.52075 37.5653C2.51903 37.0873 2.52075 36.6077 2.52075 35.9869ZM51.0448 7.14497C37.0537 7.14497 23.1088 7.14497 9.13486 7.14497C9.13486 16.7731 9.13486 26.3571 9.13486 36.0005C14.5226 36.0005 19.8437 36.0005 25.1408 36.0005C25.6881 37.3169 25.9703 37.4989 27.4207 37.5006C29.1021 37.5023 30.7834 37.4717 32.4647 37.5108C33.6568 37.5397 34.7361 37.4666 34.9567 35.9597C40.3753 35.9597 45.6929 35.9597 51.0465 35.9597C51.0448 26.3247 51.0448 16.7612 51.0448 7.14497Z" fill="white"/>
<path d="M37.1905 32.8269C34.825 32.8269 32.4596 32.8388 30.0958 32.8218C28.5547 32.8116 27.4566 31.7707 27.6585 30.2944C28.187 26.4302 29.805 23.163 33.2292 20.9792C33.7509 20.6458 34.1905 20.5846 34.7943 20.8567C36.3764 21.5693 38.0201 21.5489 39.5988 20.8414C40.1769 20.5829 40.5942 20.6594 41.0851 20.9622C43.8919 22.6834 45.4415 25.2839 46.324 28.3453C46.5036 28.9678 46.6524 29.6141 46.6969 30.257C46.803 31.7639 45.8109 32.8081 44.2853 32.8201C41.9215 32.8405 39.556 32.8269 37.1905 32.8269Z" fill="white"/>
<path d="M37.1939 10.1452C39.9032 10.1537 42.0669 12.3256 42.06 15.0281C42.0532 17.7154 39.8605 19.8754 37.1461 19.8652C34.4351 19.8549 32.2748 17.6864 32.28 14.9805C32.2885 12.2881 34.4744 10.1366 37.1939 10.1452Z" fill="white"/>
<path d="M21.1966 14.2849C19.375 14.2849 17.5534 14.2917 15.7319 14.2815C14.5876 14.2747 13.859 13.625 13.859 12.6453C13.859 11.6725 14.5979 11.0006 15.7319 10.9972C19.375 10.987 23.0164 10.987 26.6596 10.9972C27.7389 11.0006 28.4692 11.6606 28.4949 12.5977C28.5222 13.5722 27.7816 14.2696 26.6613 14.2798C24.8397 14.2951 23.0182 14.2849 21.1966 14.2849Z" fill="white"/>
<path d="M21.1915 20.2495C19.399 20.2495 17.6047 20.2563 15.8123 20.2478C14.5962 20.241 13.8624 19.61 13.8624 18.6015C13.8624 17.6014 14.6133 16.9619 15.8242 16.9602C19.4383 16.9551 23.0541 16.9585 26.6682 16.9602C27.5285 16.9602 28.163 17.3106 28.4162 18.161C28.6471 18.9331 28.3922 19.5862 27.7098 19.9876C27.3899 20.1747 26.9555 20.2359 26.5724 20.241C24.7782 20.2631 22.9857 20.2495 21.1915 20.2495Z" fill="white"/>
<path d="M19.4468 26.204C18.1931 26.204 16.9394 26.2142 15.6857 26.2006C14.5808 26.1887 13.8829 25.5662 13.8607 24.6035C13.8367 23.6171 14.5722 22.9249 15.6942 22.9215C18.2872 22.9113 20.8785 22.9096 23.4714 22.9232C24.5267 22.9283 25.2708 23.6324 25.269 24.5695C25.2673 25.5152 24.5421 26.1853 23.4629 26.1972C22.1236 26.2125 20.7844 26.2006 19.4451 26.2006C19.4468 26.2023 19.4468 26.204 19.4468 26.204Z" fill="white"/>
<path d="M18.7319 32.1533C17.6783 32.1533 16.6264 32.1636 15.5728 32.1499C14.5431 32.1363 13.847 31.4985 13.8231 30.575C13.7991 29.6498 14.4696 28.9014 15.477 28.8844C17.668 28.847 19.8608 28.8453 22.0501 28.8861C23.0472 28.9048 23.704 29.6753 23.6681 30.609C23.6322 31.5121 22.9686 32.1329 21.9765 32.1499C20.8956 32.167 19.8129 32.1533 18.7319 32.1533Z" fill="white"/>
</svg>
