<svg width="37" height="45" viewBox="0 0 37 45" fill="none" xmlns="http://www.w3.org/2000/svg">
<path d="M18.5 14.8565C21.5087 14.8565 23.9663 17.2089 23.9663 20.0902V22.5197C23.9663 23.1256 23.4528 23.6172 22.8199 23.6172H14.18C13.5472 23.6172 13.0337 23.1256 13.0337 22.5197V20.0902C13.0337 17.2094 15.4912 14.8565 18.5 14.8565ZM8.39398 28.4932C6.88627 28.4932 6.88627 26.2981 8.39398 26.2981H28.606C30.1137 26.2981 30.1137 28.4932 28.606 28.4932H8.39398ZM8.39398 37.9385C6.88627 37.9385 6.88627 35.7439 8.39398 35.7439H28.606C30.1137 35.7439 30.1137 37.9385 28.606 37.9385H8.39398ZM8.39398 33.2161C6.88627 33.2161 6.88627 31.021 8.39398 31.021H28.606C30.1137 31.021 30.1137 33.2161 28.606 33.2161H8.39398ZM1.65646 0.552757H27.5235C27.8399 0.552757 28.1264 0.675534 28.334 0.874315L36.154 8.36156C36.3777 8.57575 36.4898 8.85692 36.4898 9.13755V43.3497C36.4898 43.9556 35.9763 44.4472 35.3435 44.4472H1.65646C1.02362 44.4472 0.510132 43.9556 0.510132 43.3497V1.65031C0.510132 1.04439 1.02362 0.552757 1.65646 0.552757ZM27.0489 2.74732H2.80223V42.2527H34.1977V9.59198L27.0489 2.74732ZM18.5 5.79388C21.0524 5.79388 23.1214 7.77531 23.1214 10.2192C23.1214 12.6625 21.0524 14.6439 18.5 14.6439C15.9475 14.6439 13.8786 12.6625 13.8786 10.2192C13.8786 7.77531 15.9475 5.79388 18.5 5.79388ZM18.5 7.98898C17.2132 7.98898 16.1707 8.98713 16.1707 10.2192C16.1707 11.4506 17.2132 12.4493 18.5 12.4493C19.7868 12.4493 20.8293 11.4506 20.8293 10.2192C20.8293 8.98713 19.7868 7.98898 18.5 7.98898ZM18.5 17.0511C16.7569 17.0511 15.3258 18.4207 15.3258 20.0902V21.4226H21.6742V20.0902C21.6742 18.4207 20.2431 17.0511 18.5 17.0511Z" fill="white"/>
</svg>
