<svg width="128" height="128" viewBox="0 0 128 128" fill="none" xmlns="http://www.w3.org/2000/svg">
<rect width="128" height="128" fill="url(#paint0_linear_19_249)"/>
<path d="M16.7029 37.6H45.5029C50.2069 37.6 53.6629 38.68 55.8709 40.84C58.0789 42.952 59.1829 46.192 59.1829 50.56C59.1829 53.44 58.5589 55.792 57.3109 57.616C56.0629 59.392 54.5269 60.64 52.7029 61.36C56.5909 62.416 59.2309 65.008 60.6229 69.136C61.1029 70.624 61.3429 72.352 61.3429 74.32C61.3429 79.024 60.2389 82.48 58.0309 84.688C55.8229 86.896 52.3669 88 47.6629 88H16.7029V37.6ZM48.3829 72.16C48.3829 69.28 46.9429 67.84 44.0629 67.84H29.6629V77.92H44.0629C46.9429 77.92 48.3829 76.48 48.3829 73.6V72.16ZM46.2229 52C46.2229 49.12 44.7829 47.68 41.9029 47.68H29.6629V57.76H41.9029C44.7829 57.76 46.2229 56.32 46.2229 53.44V52Z" fill="black" fill-opacity="0.92"/>
<path d="M67.8201 37.6H96.6201C101.324 37.6 104.78 38.68 106.988 40.84C109.196 42.952 110.3 46.192 110.3 50.56C110.3 53.44 109.676 55.792 108.428 57.616C107.18 59.392 105.644 60.64 103.82 61.36C107.708 62.416 110.348 65.008 111.74 69.136C112.22 70.624 112.46 72.352 112.46 74.32C112.46 79.024 111.356 82.48 109.148 84.688C106.94 86.896 103.484 88 98.7801 88H67.8201V37.6ZM99.5001 72.16C99.5001 69.28 98.0601 67.84 95.1801 67.84H80.7801V77.92H95.1801C98.0601 77.92 99.5001 76.48 99.5001 73.6V72.16ZM97.3401 52C97.3401 49.12 95.9001 47.68 93.0201 47.68H80.7801V57.76H93.0201C95.9001 57.76 97.3401 56.32 97.3401 53.44V52Z" fill="black" fill-opacity="0.92"/>
<defs>
<linearGradient id="paint0_linear_19_249" x1="0" y1="0" x2="128" y2="128" gradientUnits="userSpaceOnUse">
<stop stop-color="#FF00FF"/>
<stop offset="1" stop-color="#3FA9F5"/>
</linearGradient>
</defs>
</svg>
