<svg width="812" height="770" viewBox="0 0 812 770" fill="none" xmlns="http://www.w3.org/2000/svg">
<path d="M406.624 197.934C406.98 199.582 408.504 200.706 410.073 201.088C412.613 201.707 415.784 200.549 418.281 200.021C420.487 199.493 422.692 198.964 424.884 198.384C431.466 196.686 437.873 194.37 444.02 191.468C448.129 189.519 452.138 187.362 456.197 185.296C460.756 182.949 465.521 180.865 470.446 179.402C473.227 178.624 476.043 177.908 478.941 177.744C484.35 177.37 487.615 178.898 492.19 181.466C496.051 183.599 500.298 185.923 504.103 188.125C505.091 188.691 506.078 189.262 507.057 189.837L506.997 189.953C505.962 189.477 504.935 188.986 503.912 188.491C499.944 186.605 495.599 184.46 491.656 182.481C487.157 180.155 484.235 178.783 479.028 179.114C477.081 179.248 475.148 179.545 473.25 180.001C467.466 181.33 461.946 183.521 456.505 185.928C448.142 189.555 440.303 194.263 431.745 197.494C427.449 199.061 422.978 200.066 418.504 200.992C415.205 201.57 411.36 202.941 408.327 200.841C407.369 200.166 406.615 199.121 406.501 197.939L406.629 197.921L406.624 197.934ZM408.527 187.424L408.595 187.533C410.555 186.469 412.682 185.827 414.839 185.346C417.533 184.767 420.349 184.362 423.046 183.748C424.304 183.49 425.884 183.071 427.129 182.757C433.904 180.998 440.356 178.21 446.823 175.611C453.541 172.9 460.364 170.451 467.251 168.21C468.773 167.722 470.48 167.155 472.015 166.728C474.067 166.166 476.236 165.736 478.325 166.119C480.436 166.473 482.123 167.823 483.719 169.231C488.732 173.617 493.856 178.016 498.988 182.27C500.705 183.694 502.434 185.107 504.175 186.508L504.261 186.41C502.663 184.85 501.052 183.304 499.428 181.773C494.578 177.195 489.599 172.64 484.633 168.192C482.938 166.662 480.913 165.119 478.559 164.781C474.5 164.157 470.648 165.918 466.894 167.165C460.075 169.652 453.455 172.678 446.67 175.218C439.885 177.758 432.976 179.886 426.025 181.877C425.137 182.108 423.681 182.515 422.804 182.72C418.002 183.989 412.722 184.521 408.527 187.43V187.424ZM365.096 205.551H364.966C364.863 206.916 363.75 207.988 362.539 208.475C361.281 208.974 359.925 208.948 358.571 208.853C355.876 208.616 352.943 208.384 350.264 208.106C344.744 207.523 339.278 206.62 333.915 205.072C330.343 204.055 326.833 202.815 323.301 201.631C319.768 200.447 316.167 199.357 312.477 198.694C308.742 198.044 304.945 197.58 301.159 198.207C298.095 198.709 295.829 200.006 293.397 201.856C293.113 202.069 292.548 202.488 292.272 202.716C289.858 204.634 288.062 207.132 286.008 209.358C285.217 210.202 284.377 210.997 283.49 211.74L283.567 211.845C284.36 211.344 285.119 210.791 285.84 210.19C288.327 208.111 290.355 205.499 292.983 203.63C293.241 203.435 293.845 203.019 294.105 202.837C295.511 201.863 296.918 200.955 298.506 200.351C302.89 198.748 307.729 199.238 312.282 199.88C319.61 201.056 326.731 203.216 333.793 205.493C337.344 206.623 340.906 207.793 344.585 208.491C347.345 209.034 350.145 209.272 352.944 209.466C354.81 209.573 356.664 209.67 358.532 209.717C359.947 209.748 361.476 209.656 362.781 208.998C364.057 208.348 365.182 207.049 365.096 205.553V205.551ZM362.081 197.37L362.133 197.25C360.445 196.401 358.562 195.973 356.695 195.727C354.375 195.42 352.03 195.355 349.714 195.116C348.325 194.98 346.941 194.832 345.557 194.648C340.021 193.878 334.474 193.152 328.997 192.009C322.585 190.695 316.289 188.806 309.84 187.635C307.965 187.302 306.082 186.941 304.145 187.008C300.672 187.104 298.738 188.692 296.639 191.275C294.814 193.437 293.23 195.822 291.726 198.197C289.268 202.131 286.931 206.26 284.141 209.963L284.24 210.047C285.526 208.683 286.727 207.241 287.836 205.73C291.184 201.275 294.055 196.367 297.672 192.173C298.834 190.83 300.005 189.465 301.664 188.835C304.607 187.734 307.981 188.588 311.015 188.998C317.009 189.936 322.987 191.028 328.902 192.412C335.271 193.925 341.658 195.619 348.222 196.069C350.089 196.232 351.977 196.295 353.847 196.319C356.623 196.376 359.427 196.456 362.085 197.365L362.081 197.37ZM492.877 189.621C493.224 200.141 493.723 210.676 492.877 221.183C492.39 227.355 491.903 233.811 488.834 239.307C487.823 241.096 486.536 242.715 485.019 244.102C473.865 253.627 459.501 259.088 444.951 260.628C459.665 259.861 474.469 254.495 485.78 244.909C489.027 242.023 491.148 238.037 492.216 233.874C493.32 229.742 493.648 225.495 493.906 221.251C494.599 210.702 493.849 200.127 492.882 189.621H492.877ZM491.817 188.798L491.841 188.759C490.38 187.771 488.701 187.146 487.003 186.703C485.298 186.273 483.573 185.932 481.834 185.679C474.9 184.598 467.805 184.63 460.834 185.32C446.86 186.694 433.162 190.367 420.129 195.553C415.651 197.339 411.151 199.344 407.173 202.142C404.9 203.971 401.293 205.48 400.427 208.569C400.196 209.491 400.201 210.456 400.44 211.376C400.872 213.089 401.396 214.776 402.012 216.432C406.395 227.801 409.573 240.056 417.378 249.7C421.304 254.422 426.53 258.211 432.477 259.897C435.019 260.622 437.671 260.882 440.306 260.663V260.618C436.807 260.765 433.32 260.133 430.095 258.766C423.635 256.08 418.335 251.082 414.489 245.305C408.644 236.499 406.181 226.052 402.661 216.209C402.099 214.565 401.624 212.892 401.239 211.197C401.037 210.413 401.051 209.589 401.28 208.812C401.508 208.035 401.943 207.335 402.538 206.786C403.751 205.576 405.298 204.767 406.717 203.758C410.938 200.672 415.731 198.553 420.557 196.591C427.03 193.963 433.589 191.53 440.304 189.586C450.355 186.646 460.845 184.94 471.339 185.265C475.705 185.376 480.057 185.797 484.363 186.526C486.936 186.949 489.534 187.492 491.822 188.799L491.817 188.798ZM285.981 223.811C288.603 234.153 292.394 244.321 298.186 253.329C302.537 260.227 307.876 265.997 315.345 269.52C325.478 274.445 337.526 274.615 348.095 271.006C342.737 272.437 337.182 273.092 331.654 272.73C322.544 272.164 313.506 268.653 306.845 262.348C296.431 252.036 290.45 237.564 285.981 223.811ZM286.676 219.765L286.697 219.804C288.046 219.162 289.384 218.504 290.734 217.868C296.125 215.326 301.612 212.945 307.281 211.113C317.201 207.864 327.738 206.807 338.128 207.197C341.05 207.31 344.161 207.554 347.079 207.559C352.287 207.733 359.883 207.559 363.91 211.223C364.038 211.346 364.164 211.47 364.285 211.602C364.541 211.959 364.742 212.55 364.915 212.992C365.093 213.46 365.265 213.939 365.418 214.415C367.575 221.81 367.97 229.586 367.324 237.239C366.887 243.186 365.242 249.007 362.659 254.371C360.076 259.736 356.381 264.57 351.782 268.374L351.81 268.409C356.555 264.76 360.351 259.915 362.996 254.537C365.667 249.148 367.195 243.264 367.485 237.256C367.951 231.288 368.035 225.272 367.131 219.338C366.874 217.622 366.523 215.914 366.103 214.229C365.962 213.726 365.791 213.226 365.616 212.735C365.45 212.219 365.243 211.718 364.996 211.236C364.835 211.027 364.659 210.83 364.468 210.648C359.32 205.793 349.293 206.721 342.65 206.297C334.045 205.701 325.375 206.498 316.959 208.304C306.384 210.603 295.978 214.163 286.676 219.765V219.765ZM340.667 88.1287L340.563 88.0134L338.761 89.6116C338.463 89.8796 338.159 90.1411 337.867 90.4237L337.005 91.2667L336.143 92.1031C335.858 92.3873 335.561 92.6602 335.29 92.9558C322.651 106.032 314.741 123.525 313.154 141.643C312.027 153.197 312.779 164.899 311.131 176.4L310.952 177.581L310.863 178.171C310.834 178.369 310.803 178.565 310.762 178.759L310.311 181.101C309.087 187.383 306.09 193.383 306.202 199.919C306.312 204.814 308.139 209.459 309.863 213.947C310.454 215.441 311.059 216.928 311.678 218.407C314.102 224.234 316.668 230.263 318.089 236.418C318.786 239.507 319.173 242.657 319.245 245.823C319.636 260.199 314.667 275.077 319.346 289.207C321.43 295.431 325.19 300.866 328.392 306.44C331.572 311.856 333.962 317.388 334.05 323.713C334.228 328.423 333.78 333.538 334.662 338.362C334.975 340.04 335.422 341.691 335.996 343.299C338.196 349.434 342.072 354.899 345.147 360.516C357.443 382.824 354.032 413.081 374.219 431.085C389.259 444.35 411.443 445.51 429.798 439.416C460.296 429.557 484.928 405.811 507.36 383.784C513.043 378.099 518.545 372.129 522.957 365.385C531.025 353.218 534.728 338.748 536.355 324.376C537.449 314.808 537.73 305.166 537.889 295.55H537.727C537.373 301.95 537.048 308.351 536.478 314.73C534.898 333.643 530.872 353.199 519.063 368.531C517.158 371.071 515.116 373.545 513.017 375.928C496.27 394.094 478.695 412.048 457.573 425.159C456.205 426.01 454.339 427.093 452.94 427.92C451.13 428.894 448.979 430.117 447.125 431.006C430.415 439.557 410.379 444.556 392.12 438.331C379.538 434.046 370.865 425.953 365.622 413.786C358.641 397.544 358.063 379.251 350.756 363.083C347.549 355.741 342.408 349.45 339.609 341.987C338.542 339.117 338.027 336.223 337.883 333.15C337.639 328.454 338.008 323.322 337.042 318.522C336.703 316.858 336.227 315.224 335.618 313.638C332.17 304.522 325.169 297.396 321.799 288.345C316.862 274.597 321.359 259.986 320.596 245.771C320.437 242.12 319.87 238.498 318.906 234.974C316.49 226.01 312.001 217.84 308.971 209.149C307.348 204.619 306.47 199.992 307.497 195.217C308.238 191.33 309.77 187.559 310.756 183.685C311.243 181.871 311.752 179.634 312.054 177.773C314.353 164.735 313.384 151.316 315.172 138.256C317.727 119.286 326.957 101.536 340.661 88.1336L340.667 88.1287ZM278.03 215.347C296.332 207.932 316.021 202.043 335.902 199.766C340.828 199.183 345.833 198.884 350.744 199.628C355.696 200.349 360.263 202.405 364.853 204.338C369.494 206.287 374.295 208.304 379.422 208.454C383.289 208.616 387.082 207.356 390.311 205.279C393.518 203.294 396.383 200.776 399.525 198.718C401.606 197.335 403.767 196.074 405.994 194.941C414.927 190.385 424.689 187.749 434.476 185.752C444.292 183.769 454.211 182.332 464.186 181.448C475.692 180.399 487.244 179.95 498.796 180.102C499.312 180.12 500.108 180.061 500.532 180.238C500.512 180.238 500.485 180.16 500.512 180.238C500.552 180.398 500.571 180.561 500.569 180.726C500.569 181.85 500.535 185.194 500.535 186.327L501.834 184.794C500.447 185.065 499.217 185.857 498.397 187.008C497.028 188.912 496.621 191.302 496.475 193.547C496.2 201.803 496.031 212.407 495.854 220.754C495.692 226.745 495.895 232.773 493.952 238.458C491.994 244.079 487.566 248.508 482.564 251.602C479.166 253.714 475.336 254.969 471.576 256.28C464.931 258.547 458.096 260.214 451.152 261.26C446.235 261.95 441.234 262.629 436.271 262.358C428.352 262.033 421.173 257.742 415.791 252.125C411.717 247.862 408.585 242.716 406.163 237.345C404.325 233.284 402.859 229.029 401.627 224.735C400.923 222.256 400.317 219.7 399.013 217.426C396.427 212.878 392.371 212.48 387.624 212.956C384.607 213.213 381.596 213.538 378.591 213.931C377.117 214.158 375.461 214.267 374.029 214.718C369.241 216.258 369.889 221.834 370.556 225.781C370.958 228.247 371.16 230.742 371.16 233.241C371.259 249.182 362.663 265.489 347.973 272.426C340.83 275.894 332.655 277.308 324.783 276.188C312.782 274.627 302.776 266.337 296.342 256.413C290.851 248.009 287.486 238.427 284.669 228.839C284.378 227.884 284.132 226.89 283.666 225.948C281.963 222.469 278.914 224.421 277.206 220.015C276.514 218.142 276.418 216.094 276.422 214.108H276.292C276.235 216.125 276.258 218.188 276.923 220.117C277.41 221.587 278.459 222.916 279.888 223.552C280.57 223.877 281.277 224.101 281.888 224.527C282.467 224.947 282.923 225.515 283.208 226.172C283.623 227.049 283.847 228.025 284.12 228.997C284.648 230.946 285.208 232.882 285.799 234.805C288.161 242.531 291.132 250.124 295.512 256.955C302.007 267.178 312.306 275.765 324.625 277.318C336.743 278.96 349.478 274.627 358.174 266.061C369.09 255.341 373.535 239.125 371.139 224.181C370.892 221.525 370.642 218.009 373.139 216.359C373.878 215.871 374.798 215.673 375.761 215.547C376.541 215.443 377.963 215.314 378.739 215.233C381.733 214.946 384.731 214.727 387.733 214.575C389.639 214.484 391.613 214.413 393.404 214.978C398.153 216.498 398.7 222.648 399.984 226.78C403.327 238.488 408.913 250.27 418.968 257.639C422.316 260.076 426.029 262.051 430.068 263.038C437.086 264.761 444.335 263.464 451.336 262.325C458.295 261.093 465.153 259.341 471.851 257.084C475.679 255.77 479.577 254.534 483.053 252.419C488.292 249.271 492.947 244.694 495.164 238.904C496.626 235.069 497.139 230.929 497.437 226.872C498.062 216.911 498.83 205.153 499.343 195.22C499.441 193.095 499.649 190.578 500.878 188.863C501.053 188.608 501.277 188.391 501.537 188.224C501.797 188.056 502.088 187.942 502.392 187.888L503.663 187.648L503.686 186.349L503.751 182.58L503.767 181.638C503.837 180.25 503.785 178.703 502.553 177.714C501.532 176.914 500.429 176.879 499.306 176.857H498.832L497.885 176.847C492.852 176.777 487.771 176.896 482.738 177.146C461.317 178.356 440.124 182.185 419.634 188.548C414.849 190.135 410.144 191.991 405.671 194.318C401.163 196.574 397.034 199.556 393.04 202.586C386.222 207.768 380.408 208.993 372.206 206.183C365.062 203.787 358.481 199.591 350.938 198.405C348.419 198.007 345.871 197.834 343.322 197.887C320.706 199.12 298.368 205.501 278.03 215.342V215.347ZM503.465 180.164C521.193 188.361 541.366 186.841 559.964 191.84C541.977 184.425 521.892 185.993 503.465 180.164ZM502.848 189.542C520.636 191.562 538.444 193.217 556.274 194.505C538.72 190.767 520.79 189.101 502.848 189.542V189.542ZM551.598 203.822C556.169 199.103 561.535 195.225 567.45 192.366C571.11 190.598 574.959 189.251 578.923 188.351C580.972 187.903 583.441 187.521 585.123 189.014C586.172 189.988 586.747 191.539 587.288 192.884C588.476 195.888 589.395 198.991 590.035 202.157C590.66 205.266 591.085 208.475 590.801 211.614C590.53 214.925 589.26 217.401 587.523 220.241C586.185 222.419 584.995 224.813 584.393 227.322C583.539 230.57 583.279 233.895 582.652 237.144C582.202 239.528 581.625 241.886 580.923 244.209C578.55 252.021 574.993 259.476 571.473 266.827C568.702 272.577 565.82 278.791 560.201 282.257C556.024 284.789 550.822 285.371 546.127 283.881C547.275 284.357 548.473 284.703 549.698 284.914C551.141 285.158 552.608 285.216 554.066 285.086C560.058 284.619 564.726 281.076 568.102 276.296C570.051 273.579 571.627 270.621 573.15 267.669C575.048 263.998 576.954 260.322 578.686 256.566C581.302 250.891 583.557 244.993 584.903 238.862C585.52 236.055 585.861 233.093 586.377 230.307C586.81 227.985 587.443 225.74 588.56 223.648C590.134 220.716 592.218 217.85 592.907 214.449C594.567 207.206 591.502 196.258 588.187 189.725C585.511 184.682 580.581 185.868 576.082 187.317C572.896 188.335 569.812 189.648 566.869 191.237C561.017 194.412 555.832 198.685 551.596 203.822H551.598ZM549.039 286.837C546.234 306.035 544.102 325.44 542.149 344.745C540.248 364.09 538.688 383.628 539.899 403.081C540.266 408.637 540.806 414.184 541.701 419.674C540.249 394.724 542.568 369.825 544.859 345.003C546.586 325.675 548.166 306.217 549.039 286.837ZM355.542 401.608C351.808 408.28 345.432 412.553 339.981 417.733C337.37 420.203 334.896 422.964 333.149 426.148C328.105 435.31 330.038 447.114 337.506 454.365C338.873 455.739 340.315 457.037 341.825 458.253C350.658 465.237 359.313 472.384 367.639 479.965C374.578 486.231 381.348 492.748 387.894 499.428C394.514 506.164 400.971 513.268 409.011 518.366C415.401 522.427 422.898 525.188 430.542 524.741C423.051 524.454 415.96 521.299 409.946 516.976C403.885 512.641 398.791 507.112 393.779 501.622C388.097 495.333 382.211 489.176 376.094 483.298C367.253 474.779 357.97 466.732 348.283 459.189C344.19 455.953 339.154 452.529 336.328 448.087C332.47 442.156 331.874 434.226 334.806 427.775C336.324 424.434 338.638 421.582 341.153 418.913C346.231 413.507 352.49 408.603 355.534 401.609L355.542 401.608ZM388.715 441.283C389.293 449.697 393.057 457.927 398.976 463.972C401.207 466.316 403.931 468.169 406.274 470.355C408.123 472.004 409.562 474.062 410.477 476.364C411.435 478.723 411.997 481.237 412.779 483.673C414.287 488.984 417.549 493.107 421.663 496.647C436.31 509.641 458.192 514.094 476.638 507.421C457.791 512.751 436.538 507.937 422.126 494.692C418.521 491.391 415.794 487.883 414.419 483.15C413.633 480.686 413.003 478.146 411.974 475.731C410.936 473.23 409.329 471.005 407.282 469.234C404.855 467.082 402.135 465.351 399.843 463.077C393.824 457.318 389.918 449.539 388.715 441.264V441.283ZM416.063 484.723C439.59 481.079 462.644 474.081 484.327 464.217C489.349 461.89 494.267 459.345 498.859 456.208C504.948 452.092 510.097 446.699 515.723 442.05C519.179 439.185 522.904 436.585 527.088 434.925C529.594 433.932 532.226 433.314 534.88 432.862C538.452 432.25 542.116 431.909 545.737 431.181C552.971 429.774 559.973 427.361 566.537 424.01C569.653 422.418 573.506 420.213 573.772 416.316C573.609 418.165 572.428 419.719 571.012 420.843C569.596 421.967 567.973 422.812 566.313 423.565C563.007 425.1 559.601 426.411 556.119 427.489C550.903 429.136 545.547 430.177 540.116 430.785C534.851 431.397 529.43 432.011 524.581 434.316C514.293 439.076 507.136 448.514 497.845 454.733C490.351 459.863 481.925 463.52 473.583 467.064C455.044 474.834 435.765 480.657 416.055 484.723H416.063ZM549.666 389.205C550.489 396.37 550.664 403.558 549.503 410.659C548.982 413.583 548.062 416.476 546.362 418.925C545.245 420.531 543.784 421.964 542.324 423.412C539.402 426.295 536.293 428.998 533.07 431.623C537.625 429.072 541.834 425.948 545.596 422.328C547.963 420.081 549.672 417.23 550.536 414.082C551.106 412.032 551.464 409.93 551.604 407.807C552.056 401.562 551.471 395.186 549.656 389.205H549.666ZM542.646 368.578C545.264 376.238 552.911 380.36 559.836 383.548C565.131 385.925 570.494 388.161 575.501 391.112C583.32 395.629 590.528 401.588 595.191 409.402C599.376 416.338 601.321 424.203 599.899 432.246L599.641 433.622L599.316 434.988L599.235 435.329L599.139 435.667L598.944 436.343C598.281 438.604 597.445 440.811 596.443 442.943C593.22 449.871 588.765 456.179 584.054 462.172C578.069 469.67 571.27 476.479 563.782 482.475C534.91 505.923 495.973 511.931 466.886 535.098C457.632 542.407 450.164 551.698 443.14 561.086C431.553 576.515 419.638 592.332 409.902 608.988C407.965 612.288 406.035 615.824 404.272 619.201C408.197 612.497 412.387 605.964 416.841 599.6C418.991 596.514 421.4 593.172 423.634 590.152C430.544 580.777 437.788 571.661 444.983 562.512C449.768 556.457 454.635 550.437 460.106 545.014C476.642 528.537 498.746 519.857 519.869 510.812C536.017 503.935 552.236 496.397 565.953 485.195C576.686 476.521 585.965 466.188 593.441 454.586C596.115 450.421 598.521 446.047 600.295 441.409C600.699 440.333 601.165 438.94 601.495 437.85C601.591 437.483 601.794 436.765 601.888 436.388C602.036 435.862 602.263 434.744 602.393 434.181L602.648 432.69C604.046 424.082 601.805 415.482 597.146 408.186C592.132 400.185 584.492 394.151 576.262 389.733C571.127 386.909 565.64 384.823 560.222 382.639C553.26 379.744 545.601 375.999 542.639 368.572L542.646 368.578ZM401.33 625.486C407.175 615.054 416.852 607.512 426.883 601.348C437.016 595.285 447.462 589.439 458.462 585.156C465.811 582.249 473.484 580.539 481.27 579.229C489.057 577.92 496.931 576.394 504.607 574.386C509.88 573.027 515.179 571.56 520.418 570.072C521.469 569.764 522.626 569.208 523.279 568.252C524.253 566.881 524.253 565.029 524.216 563.509C524.128 559.497 523.667 555.539 523.274 551.604C521.813 539.822 523.293 527.762 528.13 516.846C524.595 524.005 522.485 531.783 521.918 539.747C521.269 547.671 522.769 555.636 522.823 563.523C522.836 564.459 522.823 565.409 522.592 566.285C522.373 567.097 521.952 567.732 521.206 568.13C520.459 568.528 519.528 568.734 518.564 569C509.976 571.303 501.355 573.592 492.638 575.359C483.41 577.209 473.968 578.309 464.922 581.094C460.628 582.431 456.426 584.042 452.339 585.918C446.905 588.39 441.624 591.218 436.466 594.193C422.872 602.033 408.616 611.033 401.33 625.486ZM523.743 562.343C533.634 560.841 543.401 558.615 552.966 555.684C556.095 554.563 556.321 552.692 556.114 549.802C555.58 536.773 562.272 524.655 569.671 514.358C575.446 506.421 582.307 499.336 590.054 493.31C604.401 482.244 621.935 473.634 631.049 457.181C634.688 450.397 637.743 441.254 633.34 434.118C631.989 432.022 630.179 430.427 628.47 428.724L623.437 423.819C619.216 419.781 615.053 415.36 609.962 412.391C606.918 410.588 603.414 409.389 599.85 409.518C601.017 409.583 602.175 409.769 603.304 410.071C611.308 412.405 616.594 419.245 622.183 425.05L627 430.176C628.601 431.904 630.285 433.517 631.358 435.35C633.577 439.192 633.124 443.843 631.856 447.97C629.096 456.707 623.072 463.936 616.217 469.877C607.408 477.511 597.084 483.284 587.885 490.505C578.478 497.863 570.425 506.806 564.086 516.93C557.782 526.976 552.799 538.724 554.113 550.817C554.303 552.549 554.005 553.304 552.327 553.97C542.987 557.322 533.41 560.049 523.753 562.339L523.743 562.343ZM330.85 436.336C329.064 438.639 326.825 440.528 324.518 442.282C320.622 445.222 316.519 447.751 312.58 450.728C309.4 453.138 306.228 455.87 304.15 459.361C297.271 470.495 295.964 484.36 298.492 497.014C299.661 502.805 301.481 508.445 303.916 513.826C304.318 514.72 304.735 515.605 305.166 516.482C304.484 514.164 303.794 511.785 303.192 509.444C301.394 502.46 300.118 495.29 300.014 488.07C299.865 479.554 301.386 470.92 305.125 463.231C305.957 461.571 306.82 459.908 307.949 458.427C312.139 453.135 317.883 449.463 322.986 445.043C325.945 442.498 328.92 439.765 330.858 436.338L330.85 436.336ZM327.316 491.304C323.664 501.049 317.883 509.87 310.756 517.416C306.827 521.723 302.679 525.946 299.219 530.716C296.168 534.874 293.11 540.47 294.896 545.745C295.595 547.749 297.142 549.362 298.901 550.483C301.161 551.92 303.555 552.864 305.882 554.118C319.682 561.284 332.353 570.465 344.406 580.245C368.335 599.67 389.514 624.678 396.833 655.242C399.305 665.299 400.148 675.788 399.055 686.142C402.048 665.352 396.573 644.053 386.533 625.831C384.153 621.541 381.533 617.388 378.687 613.393C364.781 593.969 346.273 578.32 326.757 564.784C319.222 559.609 311.342 554.915 303.073 551.003C301.917 550.479 300.794 549.887 299.709 549.229C297.612 547.959 296.066 545.99 295.803 543.525C295.316 538.756 298.076 534.358 300.752 530.624C305.495 524.069 311.491 518.442 316.381 511.946C321.109 505.692 324.802 498.72 327.32 491.296L327.316 491.304ZM299.553 457.753C281.417 465.411 260.889 466.957 241.834 462.226C239.189 461.709 236.377 461.323 233.66 462.136C233.232 462.266 232.812 462.421 232.403 462.603C232.32 462.642 232.241 462.685 232.16 462.728L231.673 462.984L231.552 463.049L231.439 463.124L231.211 463.277L230.758 463.587C228.419 465.374 227.271 468.164 226.427 470.767C222.836 481.866 219.501 493.105 216.338 504.328C211.955 520.075 207.722 535.838 203.826 551.72C202.746 556.278 201.748 560.881 200.951 565.503C198.142 581.654 197.407 598.198 199.003 614.513C198.944 605.202 199.439 595.896 200.485 586.644C200.986 582.119 201.712 577.368 202.498 572.879C204.802 559.655 209.138 545.346 212.726 532.362C217.96 513.547 223.36 493.907 228.961 475.232C229.508 473.472 230.314 470.462 231.086 468.887C231.924 467.111 233.127 465.877 235.012 465.372C236.972 464.875 239.165 465.11 241.222 465.46C260.813 469.655 281.838 467.206 299.542 457.753H299.553ZM222.677 473.694C217.806 479.735 212.448 486.642 207.648 492.767C202.657 499.188 197.686 505.589 193.385 512.54C186.242 524.06 181.105 536.617 174.866 548.583C169.95 558.186 163.696 566.972 158.468 576.416C155.82 581.219 153.445 586.288 151.755 591.521C138.978 631.77 159.157 671.985 163.282 711.911C162.392 674.555 145.483 637.848 153.525 600.381C157.21 581.718 169.935 567.006 178.171 550.275C183.61 539.429 188.021 528.106 193.733 517.406C196.848 511.486 200.508 505.857 204.303 500.342C210.341 491.62 216.749 482.476 222.67 473.691L222.677 473.694ZM150.326 593.038C137.789 613.303 121.161 631.044 111.24 652.908C109.063 657.618 107.019 662.573 105.249 667.448C91.6865 703.942 87.7429 745.217 62.9437 776.574C55.534 785.877 46.5462 793.857 39.4125 803.412C32.2917 812.918 26.8627 824.811 28.4976 836.926C28.9343 839.864 29.673 842.885 31.4719 845.302C30.6738 844.051 30.0823 842.68 29.7201 841.241C27.1777 831.095 30.5319 820.466 35.8391 811.773C43.6174 799.017 55.646 789.749 65.0624 778.295C74.659 766.671 81.5021 753.01 86.673 738.927C96.7096 711.704 101.332 682.744 112.685 655.995C120.316 637.39 132.786 621.439 143.517 604.583C145.896 600.862 148.225 596.919 150.336 593.042L150.326 593.038ZM45.6387 822.132C51.3957 815.247 60.4289 811.984 69.2073 811.575C75.0958 811.27 81.0037 812.062 86.7835 813.19C92.568 814.353 98.4159 815.637 103.965 817.619C109.514 819.6 114.732 822.366 119.713 825.495C136.098 835.735 151.287 850.109 171.179 852.724C171.529 852.761 172.536 852.862 172.867 852.898C173.802 852.986 174.75 852.994 175.686 853.039C174.759 852.877 173.828 852.771 172.909 852.588L172.359 852.471L171.263 852.24C151.953 847.813 137.671 833.128 121.421 822.779C110.139 815.47 100.439 812.522 87.2819 810.378C79.7861 809.136 71.977 808.556 64.4844 810.178C57.0909 811.783 49.8582 815.701 45.6338 822.134L45.6387 822.132ZM40.9727 838.171C31.4118 838.311 24.843 847.884 20.6284 855.43C16.0306 863.686 12.7219 872.666 8.63062 881.092C6.52005 885.478 4.14972 889.744 1.3248 893.714C0.904306 894.346 0.430226 894.932 -0.0081234 895.557C2.32161 893.575 4.43381 891.35 6.29275 888.921C7.69736 887.099 9.00135 885.201 10.1989 883.236C15.3406 874.873 18.8961 865.586 23.3381 856.866C27.2588 849.346 32.0677 840.317 40.9711 838.162L40.9727 838.171ZM622.029 466.79C634.704 474.204 647.604 481.245 660.956 487.385C669.058 490.989 677.315 494.369 685.934 496.556C688.824 497.3 691.75 497.896 694.701 498.343C709.103 500.588 723.986 499.68 737.989 504.115C742.083 505.468 746.171 507.13 749.608 509.785C750.761 510.679 751.807 511.702 752.724 512.836C752.347 512.201 751.928 511.592 751.471 511.013C748.167 506.933 743.381 504.398 738.619 502.389C733.099 500.135 727.254 498.835 721.375 497.955C711.147 496.399 700.057 496.038 689.949 493.847C679.721 491.612 669.796 487.826 660.094 483.855C647.294 478.437 634.751 472.476 622.026 466.801L622.029 466.79ZM688.106 503.222C683.299 505.371 679.2 508.954 675.305 512.433C674.308 513.39 673.155 514.419 672.175 515.412C655.016 532.391 643.75 554.475 636.586 577.341C632.304 591.101 629.333 605.228 627.056 619.441C625.036 631.696 623.873 644.147 620.237 656.067C620.003 656.889 619.631 657.954 619.355 658.794C619.079 659.634 618.688 660.628 618.381 661.487C618.079 662.299 617.641 663.304 617.303 664.146C616.917 665.019 616.506 665.885 616.11 666.757C616.637 665.755 617.616 663.852 618.035 662.898L618.339 662.248L618.492 661.924L618.631 661.599L619.186 660.272C622.662 651.826 624.492 642.807 626.065 633.845C627.346 626.307 628.577 618.74 630.051 611.233C633.15 595.33 637.118 579.502 643.01 564.389C649.395 548.001 658.138 532.337 669.832 519.134C671.293 517.481 673.172 515.467 674.735 513.926C675.294 513.355 676.208 512.444 676.784 511.925C680.214 508.668 683.862 505.377 688.106 503.232V503.222ZM514.307 575.988C505.865 589.92 500.566 605.769 498.824 621.967L498.762 622.543L499.312 622.759C510.383 627.103 520.369 633.669 531.103 638.758C533.27 639.773 535.465 640.738 537.686 641.629C553.213 647.597 569.146 652.641 584.883 658.034C591.413 660.2 598.711 662.637 605.218 664.711C598.831 662.261 591.622 659.556 585.185 657.174C574.096 653.08 562.781 648.963 551.666 644.993C546.076 642.976 540.503 641.017 535.08 638.629C525.292 634.317 516.213 628.59 506.488 624.108C504.311 623.114 502.105 622.18 499.86 621.327L500.347 622.12C501.808 606.021 506.678 590.238 514.309 575.992L514.307 575.988ZM488.933 621.627C486.095 620.838 483.019 621.881 480.783 623.692C478.501 625.527 476.905 628.077 475.538 630.612C474.611 632.341 473.739 634.241 473.887 636.281C474.034 638.321 475.172 640.208 476.647 641.572C479.554 644.306 483.717 645.024 487.37 646.12C489.174 646.655 491.003 647.303 492.753 647.991C499.882 650.826 506.516 654.641 513.345 658.141C520.178 661.714 527.432 664.508 534.699 667.04C541.8 669.492 560.524 675.952 567.388 678.268C577.405 681.688 590.056 685.913 600.152 689.27L601.521 689.72C601.967 689.86 602.446 690.056 603.024 690.086C604.77 690.141 605.057 688.343 604.994 686.988C604.974 686.277 605.002 685.548 604.994 684.833C605.042 680.206 605.396 674.829 609.215 671.654C605.195 674.683 604.601 680.144 604.388 684.818C604.349 685.755 604.338 686.749 604.296 687.682C604.247 688.466 603.956 689.376 603.063 689.306C602.677 689.278 602.252 689.105 601.792 688.94C593.423 685.89 581.706 681.701 573.332 678.708C563.508 675.227 545.292 668.826 535.288 665.356C529.414 663.312 523.586 661.178 517.97 658.516C509.708 654.637 501.837 649.908 493.252 646.695C491.893 646.192 490.511 645.711 489.122 645.29C485.126 643.991 480.571 643.642 477.333 640.814C475.174 638.935 474.137 636.321 475.06 633.525C475.349 632.63 475.711 631.761 476.143 630.926C476.994 629.219 477.929 627.548 479.083 626.053C481.321 623.068 485.105 620.77 488.927 621.627H488.933ZM499.122 603.316C491.755 600.317 484.063 598.191 476.202 596.982C472.785 604.755 469.661 612.65 466.829 620.667C464.751 626.532 462.791 632.597 461.048 638.563C460.458 640.617 459.768 642.638 459.587 644.818C458.949 652.383 466.323 657.161 471.804 660.897C480.129 666.437 489.326 670.54 499.009 673.035L498.684 672.765C499.015 673.508 499.119 674.333 498.985 675.135C498.756 676.884 497.962 678.572 497.731 680.366C497.171 684.152 500.457 687.721 504.12 688.163C505.022 688.28 505.939 688.186 506.799 687.89C505.063 688.39 503.193 687.981 501.689 687.035C499.506 685.689 497.911 683.077 498.411 680.467C498.877 677.748 500.856 674.945 499.496 672.145C492.456 670.091 485.677 667.231 479.291 663.624C476.146 661.84 473.107 659.877 470.188 657.743C466.591 655.053 462.472 652.032 461.478 647.436C460.946 644.571 461.947 641.896 462.736 639.05C465.059 631.057 467.61 623.136 470.389 615.287C472.434 609.462 474.711 603.495 476.999 597.757L476.444 598.07C478.367 598.31 480.283 598.613 482.194 598.949C487.937 599.978 493.595 601.433 499.121 603.303L499.122 603.316ZM509.252 686.542C510.029 682.765 511.352 679.106 513.377 675.871C513.587 675.555 513.846 675.276 514.145 675.044C514.752 674.584 515.444 674.607 516.179 674.763C524.48 676.891 532.739 679.278 540.918 681.815C545.839 683.34 550.731 684.956 555.603 686.628C557.439 687.297 559.629 687.813 560.944 689.325C562.373 691.062 560.853 692.832 559.769 694.338C559.262 695.049 558.775 695.77 558.321 696.512C556.496 699.466 555.084 702.656 554.126 705.993C555.738 702.023 557.915 698.306 560.587 694.957C561.386 693.943 562.445 692.837 562.717 691.443C563.24 688.744 560.727 686.998 558.577 686.083C557.907 685.791 556.816 685.405 556.142 685.14C551.297 683.319 546.402 681.64 541.456 680.105C533.634 677.665 525.711 675.586 517.689 673.868C516.346 673.543 514.677 673.207 513.517 674.238C513.151 674.556 512.839 674.929 512.59 675.344C510.73 678.81 509.596 682.618 509.258 686.537L509.252 686.542ZM558.579 707.716C560.862 710.216 564.729 710.877 567.823 709.615L568.088 709.491C568.262 709.404 568.443 709.329 568.611 709.231L569.111 708.926C569.195 708.878 569.275 708.824 569.351 708.764L569.585 708.585L569.817 708.406C569.892 708.343 569.961 708.275 570.034 708.21L570.25 708.013C571.536 706.753 572.497 705.139 573.648 703.862C575.759 701.377 578.399 701.283 581.383 702.096C584.205 702.917 587.111 704.018 589.921 704.88C598.526 707.629 607.25 709.964 616.094 711.884C617.534 712.153 619.274 712.715 620.802 712.574C623.679 712.319 624.762 709.464 625.684 707.182C630.628 695.374 634.891 683.292 638.453 670.996C639.264 668.195 640.125 665.101 640.841 662.287C641.706 658.847 643.464 653.825 639.704 651.483C639.033 651.099 638.319 650.794 637.578 650.575C635.444 649.89 631.118 648.531 628.973 647.866C631.084 648.652 635.288 650.28 637.407 651.043C638.096 651.285 638.756 651.602 639.375 651.99C642.679 654.243 640.674 658.92 639.838 662.015C637.933 668.48 635.868 674.925 633.668 681.297C630.993 689.036 628.028 696.854 624.901 704.422C624.619 705.095 623.867 706.883 623.602 707.531C623.086 708.697 622.555 710.035 621.411 710.602C620.539 710.995 619.656 710.825 618.651 710.636C612.058 709.274 605.481 707.727 598.98 705.986C593.947 704.629 588.835 703.154 583.872 701.578C579.941 700.333 575.882 699.629 572.994 703.29C571.877 704.64 571.09 706.103 569.971 707.351C569.735 707.624 569.476 707.877 569.197 708.108L568.991 708.28C568.924 708.34 568.852 708.394 568.776 708.442L568.327 708.743C568.094 708.887 567.859 708.996 567.612 709.132C564.69 710.487 560.931 709.996 558.584 707.723L558.579 707.716ZM509.648 689.444C508.979 693.397 507.336 702.889 506.696 706.782C505.742 712.55 504.711 718.324 502.748 723.836C494.359 745.724 485.806 767.584 478.369 789.826C475.875 797.263 473.203 804.667 471.726 812.413C471.448 813.875 471.216 815.337 471.041 816.813C470.938 817.911 470.704 818.894 470.989 820.05C471.278 821.307 472.45 821.986 473.499 822.504C484.321 828.166 495.343 833.885 507.238 837.052C511.265 838.13 515.377 838.855 519.528 839.221L519.782 838.66C521.267 835.487 521.326 831.839 521.342 828.441C521.311 825.105 521.589 821.897 522.391 818.673C523.539 813.856 525.43 809.154 527.031 804.437C535.296 780.743 541.504 756.241 547.38 731.852C548.046 729.078 549.089 724.786 549.715 722.058C550.023 720.567 549.414 719.675 547.963 719.297L547.36 719.118C542.142 717.573 536.902 716.087 531.643 714.697C525.171 712.974 518.669 711.369 512.138 709.881C523.488 712.782 534.755 715.976 545.941 719.464C546.304 719.574 547.403 719.925 547.735 720.028C548.084 720.116 548.409 720.278 548.69 720.502C549.055 720.877 549.015 721.363 548.909 721.905C541.508 750.998 534.093 780.407 523.772 808.611C522.051 813.346 520.363 818.252 519.822 823.326C519.35 827.474 519.959 831.665 518.968 835.706C518.772 836.462 518.511 837.2 518.187 837.911L519.066 837.41C515.227 837.03 511.426 836.334 507.701 835.329C495.939 832.204 485.077 826.594 474.301 820.984C472.899 820.287 472.453 820.002 472.591 818.436C473.466 808.744 476.812 799.522 479.837 790.319C486.006 771.818 492.541 753.341 499.431 735.097C501.485 729.613 503.699 724.124 505.055 718.4C505.966 714.585 506.531 710.706 507.104 706.834C507.685 702.99 509.052 693.459 509.654 689.433L509.648 689.444ZM553.507 717.492C554.908 715.686 555.618 712.678 555.161 710.438C553.301 712.019 552.551 715.249 553.507 717.492ZM478.436 667.405C460.804 709.282 450.349 753.869 440.52 798.106C437.202 813.331 433.805 828.568 429.337 843.489C423.267 863.824 415.709 883.816 407.852 903.516C405.772 908.713 400.499 921.788 398.313 927.203L401.742 919.407C404.725 912.585 408.113 904.734 410.972 897.89C418.33 880.267 425.275 862.214 430.867 843.945C438.744 818.121 443.449 791.484 449.748 765.282C457.442 732.214 466.241 699.126 478.436 667.4V667.405ZM608.268 711.34C591.156 787.943 574.999 865.9 560.288 943C577.41 866.398 593.546 788.44 608.268 711.34V711.34ZM373.855 760.653C385.156 740.157 393.84 718.321 399.703 695.66C391.504 717.508 382.888 739.173 373.855 760.653ZM390.146 641.763C390.163 670.319 384.64 698.785 373.69 725.157C373.365 725.969 372.878 727.059 372.529 727.876L371.368 730.599C371.191 731.02 370.98 731.512 370.534 731.673C370.427 731.704 370.312 731.699 370.209 731.658C370.163 731.635 370.129 731.595 370.113 731.546C370.096 731.497 370.1 731.444 370.123 731.398C370.171 731.257 370.3 731.038 370.472 731.054C370.525 731.075 370.543 731.147 370.55 731.205C370.553 731.174 370.549 731.143 370.537 731.115C370.524 731.086 370.505 731.061 370.48 731.043C370.448 731.034 370.414 731.032 370.382 731.039C370.349 731.046 370.319 731.061 370.293 731.082C370.087 731.218 369.878 731.59 370.16 731.759C370.85 732.051 371.347 731.236 371.607 730.723C372.063 729.841 373.211 727.637 373.652 726.773C386.605 700.64 392.545 670.86 390.141 641.767L390.146 641.763ZM256.053 610.641C254.105 608.614 250.975 608.358 248.405 609.18C245.69 610.005 243.474 611.778 241.961 614.167C239.477 617.986 238.613 622.547 237.227 626.802C235.603 631.829 233.366 636.856 233.33 642.232C233.303 647.075 235.189 652.289 239.662 654.673C242.149 656.005 244.981 656.348 247.726 656.632C253.987 657.269 260.295 657.285 266.559 656.681L266.109 656.228C266.021 658.292 265.914 660.355 265.843 662.421C267.838 662.678 269.858 662.199 271.525 661.073C269.878 661.979 267.973 662.3 266.12 661.982L266.318 662.229C266.564 660.095 266.775 657.954 267.007 655.818C264.177 655.94 261.344 655.981 258.514 655.883C254.97 655.797 251.432 655.505 247.913 655.071C245.372 654.756 242.753 654.394 240.496 653.156C237.538 651.553 235.877 648.316 235.353 645.079C234.751 641.668 235.379 638.189 236.327 634.899C237.282 631.488 238.582 628.105 239.439 624.644C240.103 622.045 240.717 619.501 241.73 617.047C242.57 615.071 243.659 613.149 245.302 611.736C248.154 609.233 252.915 607.961 256.071 610.628L256.053 610.641ZM274.352 676.934C274.127 670.326 273.739 663.251 273.324 656.64C273.064 652.978 272.757 649.08 277.076 647.918C279.673 647.249 282.8 647.657 285.486 647.704C290.65 647.897 297.712 648.123 302.878 648.251C303.737 648.271 306.233 648.329 307.043 648.345C307.163 648.345 307.283 648.359 307.4 648.388C307.357 648.354 307.327 648.306 307.317 648.253C307.317 648.224 307.317 648.24 307.317 648.29C307.259 648.468 307.189 648.641 307.108 648.808C306.961 649.143 306.655 649.825 306.509 650.16C306.077 651.214 305.583 652.526 305.241 653.624C302.867 661.118 302.643 669.265 304.69 676.743C303.229 668.161 304.187 659.305 307.613 651.418C307.861 650.804 308.22 650.082 308.501 649.477C308.64 649.215 308.752 648.938 308.835 648.652C309.116 647.614 308.333 646.807 307.325 646.762C304.684 646.622 299.821 646.437 297.141 646.33C292.965 646.179 286.807 645.971 282.648 645.862C280.654 645.799 278.607 645.791 276.641 646.349C275.045 646.814 273.605 647.74 272.744 649.195C271.415 651.469 271.807 654.261 272.049 656.739C272.73 663.325 273.489 670.382 274.356 676.928L274.352 676.934ZM274.764 679.471C270.072 704.127 266.364 729.311 263.521 754.256C262.537 762.953 261.661 771.663 260.893 780.387C273.67 778.346 286.474 783.855 299.26 781.289L300.014 781.135C299.396 770.106 299.263 758.83 299.536 747.774C300.123 723.817 302.849 699.387 307.445 675.871C297.137 678.707 286.26 678.745 275.933 675.979C283.484 678.266 291.416 679.013 299.261 678.177C301.877 677.9 304.471 677.448 307.026 676.826L306.528 676.35C303.843 688.809 301.617 702.418 300.182 715.082C297.746 736.785 297.08 758.65 298.191 780.461L298.904 779.54C295.935 780.145 292.871 780.293 289.803 780.181C280.453 779.856 271.119 777.258 261.704 778.591L262.652 779.491C263.341 771.124 264.119 762.765 264.987 754.413C267.543 729.456 270.88 704.248 274.764 679.471V679.471ZM306.958 657.537C311.061 658.8 316.003 656.575 317.794 652.529C318.404 651.287 318.888 649.908 319.625 648.774C320.631 647.139 322.166 646.551 324.008 646.338C327.861 645.942 337.123 645.017 340.851 644.61L343.659 644.309C347.023 644.014 350.339 643.335 350.72 639.326C351.309 633.88 352.001 627.871 352.55 622.451C352.842 619.62 353.097 616.693 352.821 613.82C352.334 608.622 349.925 603.886 347.721 599.261L346.965 600.032C341.669 605.436 338.631 612.836 338.198 620.343C337.911 625.423 338.812 630.606 341.039 635.189C339.335 630.858 338.617 626.2 338.938 621.556C339.443 613.963 342.581 606.451 348.046 601.111L346.817 600.895C349.15 605.892 351.405 611.107 351.201 616.713C351.176 618.548 350.991 620.398 350.792 622.266C350.199 627.676 349.584 633.663 349.015 639.109C348.913 639.921 348.764 640.622 348.22 641.202C347.285 642.186 345.548 642.463 344.176 642.633L340.672 643.064C335.881 643.653 330.048 644.403 325.259 645.03C323.456 645.268 321.472 645.518 320.037 646.807C318.458 648.232 317.936 650.369 317.131 652.222C315.602 656.086 311.139 658.466 306.952 657.533L306.958 657.537ZM254.915 620.18C283.438 616.474 313.389 613.144 341.969 610.7C341.359 609.772 340.132 609.327 339.131 609.69C339.592 609.586 340.073 609.623 340.512 609.797C340.95 609.971 341.327 610.273 341.591 610.664L341.697 610.446C330.764 610.533 319.839 611.155 308.947 612.095C290.868 613.744 272.64 616.268 254.915 620.18V620.18ZM253.398 620.705C250.169 625.438 246.671 630.848 247.43 636.862C247.872 640.588 250.046 644.36 253.728 645.674C258.352 642.877 263.631 641.434 268.921 640.489C291.142 637.039 315.516 633.531 337.737 630.016C334.303 630.276 330.488 630.621 327.057 630.965C307.622 632.976 287.88 635.621 268.611 638.808C263.289 639.864 257.941 641.389 253.319 644.33L253.924 644.275C249.715 642.651 247.901 637.635 248.307 633.382C248.754 628.772 251.161 624.665 253.405 620.713L253.398 620.705ZM262.289 610.815C264.034 602.709 266.166 594.502 268.518 586.556C273.389 569.864 279.1 553.304 282.75 536.258C283.133 534.366 283.675 531.982 283.977 530.086C284.365 528.02 285.012 523.88 285.276 521.791C286.413 513.545 286.575 505.108 288.992 497.114C290.523 491.788 292.712 486.649 294.822 481.494C291.103 488.965 287.528 496.709 286.055 505.007C285.172 509.688 284.666 514.801 284.031 519.519C283.852 520.819 283.281 524.392 283.088 525.691C282.802 527.169 282.222 530.364 281.924 531.823C281.625 533.281 281.154 535.443 280.841 536.911C280.698 537.551 279.797 541.296 279.636 541.975C273.999 564.907 265.674 587.375 262.29 610.82L262.289 610.815ZM345.299 596.587C346.296 591.445 344.596 584.948 341.193 580.967C341.65 583.34 342.562 586.46 343.159 588.799C343.788 591.122 344.539 594.308 345.299 596.587V596.587ZM256.946 659.768C253.442 690.035 246.619 719.971 238.355 749.261C234.861 761.537 230.914 774.617 227.067 786.821C212.104 833.815 196.798 881.024 182.405 928.199C189.91 906.181 197.283 884.121 204.524 862.019C225.727 795.752 250.837 729.592 256.944 659.762L256.946 659.768ZM345.427 647.262C330.85 745.989 306.66 843.471 281.333 939.906C309.049 844.108 333.269 746.37 345.431 647.251L345.427 647.262ZM354.243 642.615C368.847 737.757 371.047 834.644 374.445 930.669C373.518 834.567 371.275 737.41 354.246 642.604L354.243 642.615ZM473.07 666.224C457.388 694.292 441.087 722.422 427.858 751.756C419.595 770.252 412.238 790.657 404.851 809.556C397.463 828.899 390.077 848.318 382.953 867.753C391.735 846.508 400.325 825.054 408.788 803.677C417.283 782.442 425.264 760.511 435.226 739.942C447.055 715.126 460.59 690.729 473.07 666.224V666.224ZM359.36 355.643C368.149 357.35 378.497 359.741 387.368 360.49C393.082 361.002 398.835 360.886 404.523 360.144C407.342 359.788 410.16 359.223 412.943 358.682C421.306 357.287 429.852 356.908 438.228 355.481C441.962 354.823 445.733 354.09 449.209 352.541C445.611 353.717 441.855 354.198 438.109 354.615C429.667 355.563 421.062 355.684 412.648 356.976C406.207 358.251 399.676 359.151 393.1 359.116C381.763 359.116 370.616 356.712 359.36 355.65V355.643ZM368.528 359.194C369.683 365.322 371.465 372.052 376.862 375.835C380.606 378.508 385.07 379.993 389.571 380.75C399.499 382.343 409.987 379.805 418.167 373.985C420.386 372.394 422.425 370.567 424.249 368.536C427.774 364.706 431.092 359.853 436.588 358.971C433.852 359.072 431.323 360.433 429.233 362.133C426.431 364.375 424.152 367.178 421.491 369.548C412.964 377.095 401.09 380.677 389.832 379.079C383.778 378.13 377.118 375.963 373.435 370.761C370.988 367.31 369.775 363.191 368.53 359.194H368.528ZM366.686 352.453L366.723 352.513C369.168 351.451 371.376 350.017 373.75 348.982C377.849 347.149 381.111 347.701 384.79 350.119C387.098 351.5 389.608 352.702 392.342 352.939C393.76 353.085 395.174 352.307 396.323 351.574C397.473 350.842 398.512 350.053 399.689 349.517C402.059 348.456 404.618 348.464 407.175 348.484C408.483 348.492 409.79 348.594 411.084 348.787C413.696 349.189 416.167 350.199 418.715 350.86C419.993 351.185 421.275 351.492 422.562 351.782C423.85 352.071 425.142 352.341 426.446 352.565L426.464 352.497C422.719 351.207 418.89 350.176 415.003 349.411C409.379 348.284 404.929 345.469 399.383 348.961C397.338 350.231 395.104 352.426 392.545 351.722C391.516 351.41 390.051 350.714 389.027 350.293C387.837 349.783 386.614 349.318 385.351 348.899C382.819 348.066 380.13 347.399 377.442 347.551C373.394 347.771 369.746 349.937 366.686 352.456V352.453ZM344.992 78.9309C346.195 68.2372 347.379 57.5387 353.331 48.2824C358.445 40.2556 365.863 34.0025 373.625 28.6296C379.902 24.3284 386.569 20.6258 393.537 17.5705C412.625 9.17344 433.857 5.60996 454.635 7.48103C481.295 9.9027 509.825 21.3857 520.529 47.787C523.18 54.2269 523.553 61.3474 526.766 67.6395C528.578 71.2014 531.351 74.2208 534.559 76.5726C540.891 81.2438 548.713 83.2058 556.402 84.1299C559.464 84.497 562.532 84.7374 565.605 84.9534C562.557 84.5327 559.504 84.1413 556.483 83.5956C544.932 81.744 531.95 76.5628 527.703 64.7143C526.136 60.4914 525.534 55.817 524.378 51.396C523.167 46.8067 521.322 42.4088 518.897 38.3293C507.748 19.3523 486.427 9.063 465.402 5.35821C433.534 -0.467769 399.487 7.17731 373.143 25.9189C362.457 33.5185 352.219 43.1857 348.192 56.0249C345.853 63.4247 345.377 71.2355 344.994 78.926L344.992 78.9309ZM391.763 62.2017C404.488 50.4994 424.051 46.9229 439.819 54.2952C441.648 55.1249 443.421 56.0727 445.128 57.1326C445.49 57.3356 446.038 57.7254 446.387 57.9545C447.125 58.4255 448.133 59.1726 448.823 59.7102C449.177 59.9652 449.66 60.3599 449.995 60.6506L451.146 61.6251L452.938 63.2883C453.357 63.7285 454.205 64.6088 454.622 65.0554C454.977 65.4664 455.484 66.0706 455.841 66.4831C456.198 66.8956 456.89 67.8214 457.226 68.2583C457.504 68.6092 457.843 69.098 458.095 69.4814C458.591 70.1976 459.298 71.268 459.718 72.0037C462.842 77.2791 465.035 83.0466 468.281 88.2668C474.637 98.4147 484.175 108.491 495.556 112.81C503.391 115.61 511.953 115.467 520.103 114.528C532.294 112.956 544.152 108.293 553.999 100.965C538.866 111.09 519.887 115.87 501.865 112.937C499.901 112.574 497.972 112.041 496.101 111.343C483.438 106.289 472.942 94.0083 466.862 82.0494C465.003 78.4144 463.313 74.6398 461.204 71.1218C460.608 70.0807 459.742 68.856 459.062 67.862C458.517 67.1409 457.726 66.09 457.132 65.4079C456.76 64.984 456.223 64.3587 455.849 63.9461C455.34 63.4215 454.464 62.5006 453.94 61.9971C448.88 57.1521 442.71 53.4278 436.028 51.3489C435.609 51.2141 434.96 51.0029 434.541 50.9006C432.543 50.3474 430.509 49.9371 428.454 49.6727L427.685 49.5655C427.154 49.5184 425.925 49.4372 425.363 49.3852C424.33 49.3576 423.295 49.3105 422.262 49.343C422.057 49.3544 420.476 49.4015 420.327 49.4128C419.614 49.4697 418.728 49.5623 418.013 49.624C417.299 49.6857 416.028 49.9131 415.334 50.0138C414.805 50.1145 413.623 50.3711 413.062 50.4783C412.066 50.7414 411.061 50.9737 410.081 51.2904L408.62 51.7647L408.253 51.8832C407.46 52.1934 406.519 52.5329 405.738 52.8577C400.528 55.0466 395.787 58.2185 391.776 62.2001L391.763 62.2017ZM473.046 111.402C478.29 123.794 483.98 136.377 493.202 146.367C497.804 151.422 503.373 155.555 509.333 158.864C520.451 164.882 528.081 166.668 536.569 177.136C540.775 182.186 544.581 188.622 548.161 194.226L546.036 187.198C544.087 180.773 541.673 172.772 539.673 166.408C538.399 162.387 537.022 157.963 535.717 153.974L535.372 154.175C536.634 155.371 537.629 156.819 538.295 158.425C538.031 157.587 537.674 156.781 537.231 156.022C536.679 155.032 535.905 154.12 535.121 153.299L535.317 154.086C538.061 165.112 541.128 176.753 544.112 187.75L545.924 186.954C541.311 179.158 535.975 171.432 528.39 166.238C522.777 162.405 516.39 160.017 510.473 156.796C508.537 155.742 506.643 154.609 504.806 153.386C489.326 143.316 481.33 127.267 473.049 111.4L473.046 111.402ZM522.34 34.2705C553.492 50.6293 563.86 79.1421 574.293 110.583L576.704 109.469C573.814 104.653 570.796 99.7596 566.359 96.175L562.302 93.011C563.6 96.2042 568.242 107.629 569.617 111.023C572.702 118.738 577.516 129.783 580.082 137.533C581.563 142.005 582.761 146.557 583.377 151.191L585.52 150.451C582.297 145.212 578.316 140.482 573.705 136.413L570.656 133.718L572.163 137.473C575.14 144.893 577.251 152.632 578.454 160.537C579.663 168.48 579.975 176.533 579.383 184.546C581.544 168.502 579.584 151.947 573.959 136.775L572.416 137.837C573.499 138.846 574.549 139.894 575.567 140.982C578.6 144.237 581.272 147.812 583.534 151.644L586.317 156.369L585.677 150.904C584.555 141.274 581.074 132.151 577.504 123.252C574.848 116.64 569.466 103.339 566.789 96.7369L564.678 98.3384C565.687 99.1407 566.625 100.029 567.481 100.992C572.252 106.277 577.09 115.555 580.907 121.649C573.645 100.877 567.305 78.8611 554.374 60.7643C546.256 49.3332 535.16 40.0071 522.352 34.264L522.34 34.2705ZM321.063 80.2855C303.323 94.1805 286.622 111.47 280.292 133.678C278.493 139.344 277.787 148.187 276.952 154.142C278.701 150.415 281.985 142.297 284.21 138.925C287.39 133.832 291.592 129.452 296.548 126.063L294.085 123.851C288.677 134.044 286.344 145.589 287.371 157.084C288.406 168.357 292.509 179.084 296.625 189.496L298.649 194.627C298.649 190.17 298.578 185.044 299.123 180.63C299.754 174.936 300.998 169.327 302.833 163.901C303.706 161.341 304.895 158.339 306.026 155.884C305.067 157.563 303.874 159.91 303.067 161.671C299.164 170.316 296.955 179.629 296.56 189.106L298.589 188.764C293.105 173.323 287.819 157.092 291.572 140.662C292.69 135.358 294.548 130.239 297.092 125.454L300.386 119.305L294.629 123.241C287.48 128.133 281.862 134.952 278.427 142.908L281.521 143.748C283.854 122.958 296.401 105.027 310.694 90.3993C313.965 87.0178 317.633 83.5046 321.063 80.2855ZM326.142 55.4223C326.257 52.8182 326.716 50.2409 327.509 47.7578C328.2 45.5984 329.072 43.5012 330.116 41.4884C332.649 36.6044 335.883 32.0908 339.394 27.8663C344.353 21.8946 350.05 16.5767 356.347 12.0401C358.442 10.534 360.594 9.11605 362.804 7.78638L361.278 5.83735C353.446 13.5527 347.71 23.1394 344.614 33.6906L343.952 36.1269L343.39 38.5876L342.927 41.0677L345.283 41.5956C346.117 38.5918 347.458 35.7525 349.248 33.2001C349.777 32.4173 350.46 31.5467 351.056 30.8109C354.276 26.9129 358.362 23.7928 362.672 21.186C369.733 17.0118 377.424 13.8511 384.996 10.7083C386.088 10.2649 387.186 9.83124 388.283 9.39433C382.621 11.0851 377.044 13.0569 371.561 15.2593C360.265 19.6966 348.605 26.5491 343.853 38.3228C343.528 39.1544 343.213 40.0883 342.955 40.9524L345.312 41.4819C346.493 35.1083 348.619 28.947 351.62 23.2016C353.12 20.3351 354.832 17.5842 356.74 14.9718C360.088 10.1463 366.481 4.2294 370.657 0C365.582 3.1688 357.963 7.60447 353.355 11.3141C350.231 13.7631 347.278 16.4221 344.515 19.2727C342.212 21.6392 340.044 24.1336 338.021 26.744C331.811 35.0468 325.741 44.6913 326.142 55.4223ZM369.173 64.6023C377.68 50.1323 391.363 38.9871 406.977 32.9825C408.043 32.5618 409.426 32.1103 410.506 31.7156C411.097 31.5321 412.307 31.1699 412.896 30.9864C413.677 30.7216 415.705 30.2295 416.516 30.0118C417.633 29.726 419.049 29.4645 420.177 29.1997C421.239 29.0065 422.496 28.7921 423.562 28.6053C424.226 28.5192 426.322 28.2317 426.972 28.1554C427.868 28.0693 429.183 27.954 430.082 27.8663C431.047 27.8013 432.234 27.7542 433.203 27.7039C433.657 27.6746 435.818 27.6503 436.328 27.6454C437.041 27.6259 438.103 27.6616 438.828 27.6746C441.239 27.7087 443.902 27.9085 446.314 28.1619C447.048 28.2204 448.05 28.3747 448.797 28.4689C449 28.4948 450.175 28.6573 450.347 28.6784C450.57 28.7174 451.031 28.7937 451.271 28.8408C455.389 29.519 459.46 30.4586 463.459 31.6539C469.12 33.3431 474.309 35.6088 478.72 39.6401C479.968 40.738 481.155 41.9139 482.343 43.0996C489.393 50.311 496.449 57.5679 503.592 64.7014C496.884 57.1992 490.003 49.6711 483.171 42.2745C480.848 39.7944 478.382 37.3792 475.567 35.4415C472.752 33.5039 469.573 32.0664 466.347 30.9279C461.126 29.1123 455.753 27.7702 450.292 26.9178C449.362 26.7959 448.063 26.5929 447.134 26.4825C446.845 26.4467 444.249 26.2015 443.962 26.1576C442.295 26.0391 440.543 25.914 438.867 25.8864C438.135 25.875 437.046 25.8263 436.317 25.849C435.802 25.8701 433.614 25.875 433.128 25.9205C432.739 25.9384 431.613 26.0115 431.217 26.0293C430.04 26.0732 428.582 26.2486 427.404 26.3542C426.55 26.4191 424.481 26.7326 423.608 26.8414C423.251 26.8853 422.708 26.9908 422.35 27.0526C421.177 27.2621 419.752 27.5073 418.591 27.7834C417.872 27.9621 416.805 28.1538 416.107 28.3649C415.273 28.5939 413.206 29.1348 412.422 29.406C411.811 29.5977 410.604 29.9891 409.987 30.1808C409.384 30.4 408.201 30.8434 407.592 31.0627C403.027 32.76 398.628 35.0306 394.474 37.5676C393.701 38.0776 392.587 38.7987 391.81 39.312C390.808 40.0136 389.699 40.8192 388.715 41.5517C388.089 42.065 386.306 43.439 385.747 43.9523C385.27 44.3762 384.311 45.2029 383.832 45.6285C382.901 46.4828 381.981 47.3842 381.072 48.2645C380.822 48.539 379.085 50.363 378.895 50.5774C378.268 51.2807 377.453 52.2665 376.825 52.9844C373.88 56.5812 371.312 60.471 369.162 64.5925L369.173 64.6023ZM368.475 256.968C367.454 267.526 365.756 277.841 362.807 287.973C361.778 291.731 360.283 295.382 359.987 299.355C359.26 307.629 365.507 312.802 372.501 315.685C376.496 317.362 380.731 318.396 385.049 318.75C386.754 318.888 388.467 318.905 390.175 318.8C388.487 318.553 386.825 318.238 385.187 317.855C380.324 316.726 375.659 314.87 371.349 312.35C367.472 310.026 363.596 306.61 363.211 301.855C362.934 298.647 363.903 295.613 364.79 292.509C365.26 290.873 365.723 289.202 366.126 287.542C368.524 277.57 369.493 267.188 368.475 256.968V256.968ZM396.61 314.824C399.028 310.955 403.501 308.935 407.912 308.774C410.224 308.637 412.251 309.308 414.568 309.633C417.31 310.023 419.544 309.102 421.457 307.141C424.91 303.7 426.227 298.394 425.116 293.698C424.035 289.095 420.802 285.132 416.687 282.959C420.247 285.673 422.975 289.579 423.741 293.981C424.47 298.203 423.254 302.823 420.197 305.875C419.091 307 417.838 307.824 416.3 307.965C414.099 308.147 411.876 307.315 409.613 307.315C404.376 307.205 398.719 309.831 396.614 314.829L396.61 314.824ZM546.925 263.662C546.661 257.401 551.689 252.422 554.231 247.053C555.436 244.616 556.223 241.81 555.619 239.078C554.838 235.458 552.116 233.379 553.453 229.377C553.941 227.791 554.82 226.291 555.674 224.759C558.661 219.414 561.983 214.263 565.62 209.337C566.01 208.806 566.791 207.759 567.192 207.226C569.288 204.54 571.413 201.569 574.66 200.294C577.007 199.319 579.985 199.969 581.641 201.918C582.205 202.589 582.53 203.428 582.566 204.304C582.664 202.472 581.333 200.866 579.746 200.081C577.131 198.722 574.361 199.306 572.01 200.903C569.771 202.397 568.064 204.556 566.393 206.597C565.315 207.936 564.167 209.399 563.157 210.785C559.473 215.752 556.171 220.993 553.28 226.461C552.863 227.276 552.515 228.123 552.239 228.995C550.804 233.655 553.509 235.472 554.512 239.313C555.096 241.794 554.428 244.373 553.385 246.648C551.599 250.642 548.839 254.211 547.485 258.416C546.915 260.098 546.724 261.886 546.924 263.652L546.925 263.662ZM558.561 223.759C561.232 225.22 563.401 227.402 564.576 230.171C565.752 232.94 565.799 236.018 564.987 238.955C565.895 237.623 566.431 236.073 566.541 234.465C567.028 229.593 563.433 224.543 558.561 223.759V223.759ZM757.317 513.859L757.182 513.908C758.408 517.902 759.661 521.878 760.872 525.867C763.605 534.834 766.204 543.837 768.581 552.905C772.55 567.992 775.937 583.319 778.109 598.777C781.075 619.404 782.27 640.263 783.009 661.074C784.048 690.435 785.154 732.201 787.048 761.102C788.456 784.011 790.497 806.914 793.422 829.68C794.801 841.066 796.385 852.489 798.791 863.705C800.314 870.8 802.051 878.021 804.034 885.003C806.306 893.043 808.889 900.997 811.865 908.796L812 908.749C808.793 898.837 805.945 888.816 803.456 878.687C799.824 863.514 796.828 848.118 794.393 832.706C788.282 790.381 789.277 747.355 788.016 704.708C787.381 677.584 785.545 650.423 782.256 623.498C780.91 612.199 779.286 600.61 777.442 589.39C773.328 563.634 767.376 538.001 757.323 513.865L757.317 513.859ZM331.754 447.07L331.577 447.041C330.789 450.925 330.426 454.883 330.494 458.846C330.558 462.818 330.969 466.778 331.723 470.678C334.638 486.34 342.301 500.521 350.494 514.002C357.622 525.796 364.941 537.479 372.453 549.052C379.906 560.563 387.399 572.193 393.823 584.297C397.464 591.231 400.715 598.392 403.256 605.804C404.521 609.522 405.551 613.315 406.34 617.162L406.517 617.135C405.588 609.271 403.246 601.63 400.288 594.305C393.651 577.758 383.679 562.884 373.75 548.178C370.465 543.325 367.009 538.415 363.703 533.586C354.742 520.669 346.611 507.12 340.503 492.606C334.308 478.331 329.825 462.767 331.754 447.07ZM426.457 224.408L426.382 224.109C425.663 224.271 425.022 224.676 424.567 225.256C424.064 225.877 423.805 226.661 423.838 227.46C424.918 228.537 426.777 228.56 427.91 227.512C428.452 226.975 428.778 226.258 428.829 225.496C428.88 224.735 428.65 223.981 428.185 223.377L428.152 224.161L430.859 221.745L433.683 219.463L436.606 217.319L439.627 215.323L442.726 213.46L445.907 211.748L449.165 210.195L452.502 208.831C457.012 207.195 461.593 205.793 466.215 204.525C468.553 203.947 470.902 203.41 473.262 202.914C474.45 202.706 475.643 202.488 476.843 202.246C478.052 202.063 479.26 201.868 480.468 201.632V201.324C479.238 201.181 478.004 201.078 476.767 200.999C470.536 200.791 464.313 201.621 458.354 203.456C452.58 205.361 446.769 208.361 441.59 211.554L438.497 213.619L435.523 215.842L432.662 218.205L429.93 220.71L427.332 223.344L426.939 223.744L427.3 224.129C427.964 224.832 427.949 226.164 427.274 226.877C426.574 227.649 425.181 227.743 424.351 227.082L424.462 227.306C424.337 226.062 425.233 224.761 426.452 224.412L426.457 224.408ZM440.996 214.77C439.611 219.505 442.342 224.678 446.474 227.103C447.912 227.942 449.514 228.463 451.17 228.631C454.466 228.956 457.801 227.981 460.53 226.148C466.99 221.866 468.73 212.829 465.715 206.047C466.176 208.041 466.356 210.089 466.251 212.133C466.022 216.07 464.603 220.021 461.801 222.852C459.067 225.573 455.197 227.216 451.321 226.953C445.355 226.59 440.346 220.796 440.996 214.772V214.77ZM357.409 229.157L357.341 229.393C357.95 229.612 358.453 230.055 358.747 230.632C359.045 231.178 359.127 231.816 358.976 232.419C358.674 233.544 357.352 234.348 356.243 234.097L356.623 234.605C356.948 232.448 357.201 229.875 355.617 228.076C354.683 227.012 353.353 226.528 352.1 226.01C347.325 224.144 342.279 222.995 337.208 222.368C333.834 222.034 330.454 222.022 327.072 222.134C325.374 222.201 323.593 222.336 321.986 222.964L322.034 223.203C323.708 223.161 325.333 223.416 326.986 223.671C328.639 223.926 330.319 224.14 331.986 224.338C335.292 224.761 338.592 225.04 341.898 225.399C345.179 225.773 348.413 226.489 351.545 227.536C352.935 228.007 354.553 228.436 355.229 229.861C355.911 231.24 355.82 232.956 355.716 234.504L355.682 234.954L356.096 235.013C356.876 235.106 357.664 234.907 358.307 234.453C358.949 234 359.401 233.324 359.575 232.557C359.856 231.072 358.859 229.516 357.42 229.157H357.409ZM323.965 223.798C323.676 224.145 323.695 224.647 323.734 225.073C323.848 226.398 324.17 227.697 324.687 228.922C327.566 235.657 335.13 239.487 342.286 238.539C347.569 237.92 352.555 235.232 356.198 231.441C350.905 235.807 343.987 238.623 337.104 237.451C332.089 236.552 327.45 233.304 325.125 228.73C324.539 227.572 324.121 226.335 323.885 225.058C323.802 224.641 323.723 224.178 323.971 223.801L323.965 223.798ZM334.923 223.635C333.993 227.257 333.762 231.79 336.709 234.59C338.82 236.539 342.067 237.01 344.72 235.999C348.257 234.676 350.446 230.66 350.155 227.048C349.74 230.58 347.499 234.153 343.944 235.128C341.539 235.795 338.695 235.225 336.979 233.341C334.631 230.72 334.764 226.947 334.93 223.634L334.923 223.635ZM428.91 226.978C429.503 226.806 430.13 226.919 430.727 227.009C431.324 227.098 431.925 227.257 432.513 227.41C434 227.788 435.451 228.306 436.942 228.696C437.812 228.92 438.755 229.174 439.629 229.37C451.37 232.131 462.097 231.957 470.911 222.63C474.281 219 476.64 214.218 476.807 209.232C476.052 214.077 473.591 218.473 470.151 221.9C460.757 231.193 450.047 230.562 437.948 228.397C436.137 228.108 434.367 227.536 432.565 227.181C431.961 227.056 431.352 226.952 430.738 226.884C430.125 226.815 429.488 226.757 428.905 226.973L428.91 226.978ZM443.423 212.742C442.194 217.603 445.152 223.494 450.105 224.907C451.373 225.264 452.703 225.337 454.002 225.118C454.253 225.064 454.622 224.991 454.872 224.933C454.971 224.907 455.611 224.699 455.719 224.671C461.726 222.466 464.412 216.131 464.05 210.063C463.951 208.267 463.585 206.496 462.965 204.807C463.138 205.677 463.266 206.554 463.347 207.437C463.9 213.494 461.817 220.593 455.861 223.219C453.794 224.129 451.336 224.301 449.246 223.382C445.308 221.551 443.035 217.021 443.428 212.742H443.423ZM336.555 223.323C335.383 227.504 335.704 233 340.742 234.22C345.58 235.266 349.213 230.746 348.795 226.226C348.512 228.21 347.658 230.187 346.216 231.574C345.698 232.073 345.098 232.481 344.444 232.781C342.521 233.619 340.06 233.312 338.557 231.816C336.381 229.606 336.497 226.234 336.555 223.323Z" fill="url(#paint0_linear_2_10)"/>
<defs>
<linearGradient id="paint0_linear_2_10" x1="81.895" y1="281.994" x2="760.476" y2="960.293" gradientUnits="userSpaceOnUse">
<stop stop-color="#FF00FF"/>
<stop offset="1" stop-color="#3FA9F5"/>
</linearGradient>
</defs>
</svg>
